# File created by Blade
# Date/Time:  Tue Jan 27 17:09:01 2015
#---------------------------------------------------------
:version 1.10
:name HOM
:units
  mass 1.0
  length 1.000000
  angle deg
:documentation
     Acclaim Skeleton File
:root
   axis xyz
   order TX TY TZ RX RY RZ
   position 0.000000 0.000000 0.000000
   orientation 0 0 0
:bonedata
   begin
      id 1
      name Spine_dum
      direction 0.000000 1.000000 0.000000
      length 7.539951
      axis 0.0 0.0 0.0 xyz
   end
   begin
      id 2
      name LeftUpLeg_dum
      direction 1.000000 0.000000 0.000000
      length 3.345476
      axis 0.0 0.0 0.0 xyz
   end
   begin
      id 3
      name RightUpLeg_dum
      direction -1.000000 0.000000 0.000000
      length 3.345476
      axis 0.0 0.0 0.0 xyz
   end
   begin
      id 4
      name Spine
      direction 0.000000 1.000000 0.000000
      length 0.000000
      axis 0.0 0.0 0.0 xyz
      dof rx ry rz
   end
   begin
      id 5
      name Spine_dum1
      direction 0.000000 1.000000 0.000000
      length 15.093809
      axis 0.0 0.0 0.0 xyz
   end
   begin
      id 6
      name Spine_dum2
      direction 0.000000 1.000000 0.000000
      length 9.738928
      axis 0.0 0.0 0.0 xyz
   end
   begin
      id 7
      name Spine_dum3
      direction 0.000000 1.000000 0.000000
      length 9.738928
      axis 0.0 0.0 0.0 xyz
   end
   begin
      id 8
      name Head
      direction 0.000000 1.000000 0.000000
      length 4.527550
      axis 0.0 0.0 0.0 xyz
      dof rx ry rz
   end
   begin
      id 9
      name LeftShoulder
      direction 1.000000 0.000000 0.000000
      length 7.084015
      axis 0.0 0.0 -90.0 xyz
      dof rx ry rz
   end
   begin
      id 10
      name LeftArm
      direction 1.000000 0.000000 0.000000
      length 10.259319
      axis 0.0 0.0 -90.0 xyz
      dof rx ry rz
   end
   begin
      id 11
      name LeftForeArm
      direction 1.000000 0.000000 0.000000
      length 9.896984
      axis 0.0 0.0 -90.0 xyz
      dof ry rz rx
   end
   begin
      id 12
      name LeftHand
      direction 0.000000 0.000000 0.000000
      length 0.000000
      axis 0.0 0.0 -90.0 xyz
      dof rx ry rz
   end
   begin
      id 13
      name LeftHand_dum1
      direction 0.000000 0.000000 0.000000
      length 0.000000
      axis 0.0 0.0 -90.0 xyz
   end
   begin
      id 14
      name LeftHand_dum2
      direction 1.000000 0.000000 0.000000
      length 3.937000
      axis 0.0 0.0 -90.0 xyz
   end
   begin
      id 15
      name LeftHandThumb1
      direction 0.000000 0.000000 1.000000
      length 3.937000
      axis 0.0 0.0 -90.0 xyz
      dof rx rz ry
   end
   begin
      id 16
      name RightShoulder
      direction -1.000000 0.000000 0.000000
      length 7.084015
      axis 0.0 0.0 90.0 xyz
      dof rx ry rz
   end
   begin
      id 17
      name RightArm
      direction -1.000000 0.000000 0.000000
      length 10.259319
      axis 0.0 0.0 90.0 xyz
      dof rx ry rz
   end
   begin
      id 18
      name RightForeArm
      direction -1.000000 0.000000 0.000000
      length 9.896984
      axis 0.0 0.0 90.0 xyz
      dof ry rz rx
   end
   begin
      id 19
      name RightHand
      direction 0.000000 0.000000 0.000000
      length 0.000000
      axis 0.0 0.0 90.0 xyz
      dof rx ry rz
   end
   begin
      id 20
      name RightHand_dum1
      direction 0.000000 0.000000 0.000000
      length 0.000000
      axis 0.0 0.0 90.0 xyz
   end
   begin
      id 21
      name RightHand_dum2
      direction -1.000000 0.000000 0.000000
      length 3.937000
      axis 0.0 0.0 90.0 xyz
   end
   begin
      id 22
      name RightHandThumb1
      direction 0.000000 0.000000 1.000000
      length 3.937000
      axis 0.0 0.0 90.0 xyz
      dof rx rz ry
   end
   begin
      id 23
      name LeftUpLeg
      direction 0.000000 -1.000000 0.000000
      length 19.114733
      axis 0.0 0.0 0.0 xyz
      dof rx ry rz
   end
   begin
      id 24
      name LeftLeg
      direction 0.000000 -1.000000 0.000000
      length 16.045604
      axis 0.0 0.0 0.0 xyz
      dof rx ry rz
   end
   begin
      id 25
      name LeftFoot
      direction 0.000000 -0.258819 0.965926
      length 5.543155
      axis 15.0 0.0 0.0 xyz
      dof rx ry rz
   end
   begin
      id 26
      name LeftToeBase
      direction 0.000000 0.000000 1.000000
      length 2.952750
      axis 0.0 0.0 0.0 xyz
      dof rx ry rz
   end
   begin
      id 27
      name RightUpLeg
      direction 0.000000 -1.000000 0.000000
      length 19.114733
      axis 0.0 0.0 0.0 xyz
      dof rx ry rz
   end
   begin
      id 28
      name RightLeg
      direction 0.000000 -1.000000 0.000000
      length 16.045604
      axis 0.0 0.0 0.0 xyz
      dof rx ry rz
   end
   begin
      id 29
      name RightFoot
      direction 0.000000 -0.258819 0.965926
      length 5.543155
      axis 15.0 0.0 0.0 xyz
      dof rx ry rz
   end
   begin
      id 30
      name RightToeBase
      direction 0.000000 0.000000 1.000000
      length 2.952750
      axis 0.0 0.0 0.0 xyz
      dof rx ry rz
   end
:hierarchy
   begin
      root Spine_dum LeftUpLeg_dum RightUpLeg_dum
      Spine_dum Spine
      LeftUpLeg_dum LeftUpLeg
      RightUpLeg_dum RightUpLeg
      Spine Spine_dum1 Spine_dum2 Spine_dum3
      Spine_dum1 Head
      Spine_dum2 LeftShoulder
      Spine_dum3 RightShoulder
      LeftShoulder LeftArm
      LeftArm LeftForeArm
      LeftForeArm LeftHand
      LeftHand LeftHand_dum1 LeftHand_dum2
      LeftHand_dum1 LeftHandThumb1
      RightShoulder RightArm
      RightArm RightForeArm
      RightForeArm RightHand
      RightHand RightHand_dum1 RightHand_dum2
      RightHand_dum1 RightHandThumb1
      LeftUpLeg LeftLeg
      LeftLeg LeftFoot
      LeftFoot LeftToeBase
      RightUpLeg RightLeg
      RightLeg RightFoot
      RightFoot RightToeBase
   end

# File created by Blade
# Date/Time:  Tue Jan 27 17:08:52 2015
# Frame Rate: 120.000 fps
#------------------------------------------------------
:FULLY-SPECIFIED
:DEGREES
675
root 4.591709 38.317855 -1.490015 -14.960101 43.815865 -30.328558
Spine -3.833709 2.106724 26.397460
Head -11.080964 -8.162552 1.122290
LeftShoulder -2.675865 -7.701903 3.417658
LeftArm 9.132442 13.827249 -66.796637
LeftForeArm 17.390872 0.000000 111.897144
LeftHand -8.946472 -0.000000 27.932097
LeftHandThumb1 -26.253704 0.000000 33.147579
RightShoulder -2.293609 -16.794601 -3.345224
RightArm 14.509849 -10.882442 58.851725
RightForeArm 189.578791 -0.000000 19.517135
RightHand 2.150248 -0.000000 3.577121
RightHandThumb1 -24.326973 -0.000000 -32.862282
LeftUpLeg -13.014772 0.712496 18.847709
LeftLeg 18.423553 -0.000000 -0.000000
LeftFoot -14.812768 -13.545346 -8.679461
LeftToeBase 18.429745 -0.000000 -0.000000
RightUpLeg -70.952552 -2.047983 9.703410
RightLeg 134.652432 -0.000000 -0.000000
RightFoot 25.313486 18.578613 2.756607
RightToeBase -3.614023 -0.000000 0.000000
676
root 4.599212 38.313227 -1.492105 -14.831212 43.779984 -30.184671
Spine -3.820650 2.219336 26.231892
Head -11.068640 -8.153432 1.280145
LeftShoulder -2.673980 -7.707094 3.493969
LeftArm 9.138163 13.843130 -66.705106
LeftForeArm 17.242253 -0.000000 111.892436
LeftHand -8.919403 -0.000000 27.960499
LeftHandThumb1 -26.253704 0.000000 33.147579
RightShoulder -2.315311 -16.777205 -3.270555
RightArm 14.551617 -10.894052 58.854108
RightForeArm 189.549017 -0.000000 19.516049
RightHand 2.107103 -0.000000 3.611491
RightHandThumb1 -24.326973 -0.000000 -32.862282
LeftUpLeg -12.986979 0.729754 18.754327
LeftLeg 18.378948 -0.000000 -0.000000
LeftFoot -14.824864 -13.557965 -8.733150
LeftToeBase 18.505820 -0.000000 -0.000000
RightUpLeg -70.947542 -2.115215 9.633305
RightLeg 134.512372 -0.000000 -0.000000
RightFoot 25.066073 18.570625 2.716128
RightToeBase -3.084858 -0.000000 0.000000
677
root 4.606523 38.309267 -1.489100 -14.764315 43.755261 -30.116701
Spine -3.820863 2.306332 26.131928
Head -10.969447 -8.131841 1.359443
LeftShoulder -2.668293 -7.693160 3.533529
LeftArm 9.183461 13.855076 -66.576028
LeftForeArm 17.059989 -0.000000 111.887221
LeftHand -8.907862 -0.000000 28.019482
LeftHandThumb1 -26.253704 0.000000 33.147579
RightShoulder -2.352992 -16.804785 -3.247364
RightArm 14.630365 -11.068259 58.826437
RightForeArm 189.685614 0.000000 19.566473
RightHand 2.183060 -0.000000 3.792054
RightHandThumb1 -24.326973 -0.000000 -32.862282
LeftUpLeg -12.968152 0.757246 18.715635
LeftLeg 18.361612 -0.000000 -0.000000
LeftFoot -14.850089 -13.599259 -8.770294
LeftToeBase 18.540231 -0.000000 -0.000000
RightUpLeg -70.904860 -2.190522 9.628751
RightLeg 134.358253 -0.000000 -0.000000
RightFoot 24.930944 18.545409 2.671692
RightToeBase -3.302771 -0.000000 0.000000
678
root 4.615693 38.305394 -1.484461 -14.724892 43.749205 -30.063667
Spine -3.808507 2.366194 26.036486
Head -10.916598 -8.136060 1.462285
LeftShoulder -2.683544 -7.671489 3.591885
LeftArm 9.224873 13.892912 -66.473874
LeftForeArm 16.875294 -0.000000 111.885325
LeftHand -8.908296 0.000000 28.063741
LeftHandThumb1 -26.253704 0.000000 33.147579
RightShoulder -2.388312 -16.805770 -3.192549
RightArm 14.676832 -11.174526 58.785568
RightForeArm 189.769794 -0.000000 19.605852
RightHand 2.231716 -0.000000 3.889717
RightHandThumb1 -24.326973 -0.000000 -32.862282
LeftUpLeg -12.940024 0.752777 18.683025
LeftLeg 18.347890 -0.000000 -0.000000
LeftFoot -14.878875 -13.638483 -8.819027
LeftToeBase 18.608711 -0.000000 -0.000000
RightUpLeg -70.828578 -2.262390 9.616754
RightLeg 134.228678 -0.000000 -0.000000
RightFoot 24.794178 18.465992 2.728732
RightToeBase -3.279457 -0.000000 0.000000
679
root 4.624342 38.298488 -1.479599 -14.665922 43.744913 -29.975699
Spine -3.798695 2.434464 25.901971
Head -10.886350 -8.130326 1.592605
LeftShoulder -2.664185 -7.678114 3.678189
LeftArm 9.194963 13.931323 -66.388127
LeftForeArm 16.630678 -0.000000 111.878357
LeftHand -8.724440 -0.000000 28.093181
LeftHandThumb1 -26.253704 0.000000 33.147579
RightShoulder -2.411053 -16.816933 -3.114573
RightArm 14.725338 -11.092035 58.798262
RightForeArm 189.651436 -0.000000 19.581816
RightHand 2.129855 -0.000000 3.760448
RightHandThumb1 -24.326973 -0.000000 -32.862282
LeftUpLeg -12.918671 0.746593 18.631463
LeftLeg 18.365509 -0.000000 -0.000000
LeftFoot -14.919149 -13.712741 -8.900521
LeftToeBase 18.681100 -0.000000 -0.000000
RightUpLeg -70.746413 -2.340436 9.592744
RightLeg 134.125833 -0.000000 -0.000000
RightFoot 24.673496 18.486045 2.622540
RightToeBase -3.068519 -0.000000 0.000000
680
root 4.634209 38.291556 -1.473763 -14.618975 43.751493 -29.892944
Spine -3.803975 2.486704 25.774611
Head -10.807630 -8.173074 1.712362
LeftShoulder -2.636748 -7.644575 3.748956
LeftArm 9.199249 13.961863 -66.289500
LeftForeArm 16.363066 -0.000000 111.855178
LeftHand -8.528914 0.000000 28.201797
LeftHandThumb1 -26.253704 0.000000 33.147579
RightShoulder -2.412085 -16.846070 -3.083056
RightArm 14.776867 -11.048087 58.847803
RightForeArm 189.553762 -0.000000 19.571869
RightHand 2.073158 0.000000 3.664540
RightHandThumb1 -24.326973 -0.000000 -32.862282
LeftUpLeg -12.899014 0.743273 18.573754
LeftLeg 18.396095 -0.000000 -0.000000
LeftFoot -14.977461 -13.762603 -8.948901
LeftToeBase 18.784816 -0.000000 -0.000000
RightUpLeg -70.642604 -2.422888 9.567154
RightLeg 134.024859 -0.000000 -0.000000
RightFoot 24.572749 18.571724 2.513949
RightToeBase -2.819013 -0.000000 0.000000
681
root 4.638964 38.283436 -1.462652 -14.584080 43.735566 -29.864168
Spine -3.844757 2.548559 25.683703
Head -10.661672 -8.196739 1.786114
LeftShoulder -2.596509 -7.566575 3.752896
LeftArm 9.299366 13.952717 -66.066554
LeftForeArm 16.186764 -0.000000 111.853936
LeftHand -8.537683 -0.000000 28.377284
LeftHandThumb1 -26.253704 0.000000 33.147579
RightShoulder -2.388065 -16.864173 -3.082714
RightArm 14.792183 -11.108298 58.895196
RightForeArm 189.568929 0.000000 19.590651
RightHand 2.123761 -0.000000 3.656801
RightHandThumb1 -24.326973 -0.000000 -32.862282
LeftUpLeg -12.916035 0.808759 18.574678
LeftLeg 18.466472 -0.000000 -0.000000
LeftFoot -15.046551 -13.918391 -9.085451
LeftToeBase 18.942965 -0.000000 -0.000000
RightUpLeg -70.559239 -2.471151 9.627797
RightLeg 133.957710 -0.000000 -0.000000
RightFoot 24.641918 18.526325 2.586289
RightToeBase -3.003558 -0.000000 0.000000
682
root 4.650093 38.272475 -1.458034 -14.521881 43.753413 -29.729963
Spine -3.827008 2.580049 25.504557
Head -10.571584 -8.212907 1.882104
LeftShoulder -2.549687 -7.552268 3.818377
LeftArm 9.298913 13.966301 -65.973237
LeftForeArm 16.110098 -0.000000 111.843872
LeftHand -8.549919 -0.000000 28.560864
LeftHandThumb1 -26.253704 0.000000 33.147579
RightShoulder -2.371992 -16.876299 -3.050652
RightArm 14.834389 -11.154424 58.913856
RightForeArm 189.619198 0.000000 19.574866
RightHand 2.116987 0.000000 3.568204
RightHandThumb1 -24.326973 -0.000000 -32.862282
LeftUpLeg -12.894806 0.807423 18.476809
LeftLeg 18.534337 -0.000000 -0.000000
LeftFoot -15.121793 -14.006103 -9.189879
LeftToeBase 19.151056 -0.000000 -0.000000
RightUpLeg -70.438432 -2.544496 9.574449
RightLeg 133.933620 -0.000000 -0.000000
RightFoot 24.769149 18.482360 2.707741
RightToeBase -3.290362 -0.000000 0.000000
683
root 4.658098 38.262310 -1.447378 -14.473582 43.745788 -29.639207
Spine -3.821018 2.642611 25.348006
Head -10.502836 -8.251563 2.006233
LeftShoulder -2.497177 -7.582699 3.915781
LeftArm 9.222059 13.990060 -65.927339
LeftForeArm 15.963542 -0.000000 111.853639
LeftHand -8.545558 -0.000000 28.645671
LeftHandThumb1 -26.253704 0.000000 33.147579
RightShoulder -2.380359 -16.891234 -3.011417
RightArm 14.860409 -11.295720 58.908562
RightForeArm 189.688562 -0.000000 19.597723
RightHand 2.073868 -0.000000 3.611836
RightHandThumb1 -24.326973 -0.000000 -32.862282
LeftUpLeg -12.889618 0.850651 18.431056
LeftLeg 18.626626 -0.000000 -0.000000
LeftFoot -15.201753 -14.160075 -9.326635
LeftToeBase 19.349072 -0.000000 -0.000000
RightUpLeg -70.316168 -2.588390 9.607554
RightLeg 133.901848 -0.000000 -0.000000
RightFoot 24.774717 18.534409 2.658856
RightToeBase -3.211990 -0.000000 0.000000
684
root 4.666832 38.250222 -1.439835 -14.411364 43.747448 -29.516299
Spine -3.807309 2.686095 25.168642
Head -10.424419 -8.279674 2.096822
LeftShoulder -2.444693 -7.587577 4.005575
LeftArm 9.172137 13.954177 -65.881787
LeftForeArm 15.819205 -0.000000 111.863717
LeftHand -8.455313 0.000000 28.686600
LeftHandThumb1 -26.253704 0.000000 33.147579
RightShoulder -2.354249 -16.907708 -2.959987
RightArm 14.881255 -11.347465 58.905221
RightForeArm 189.634443 -0.000000 19.619606
RightHand 2.075804 -0.000000 3.549663
RightHandThumb1 -24.326973 -0.000000 -32.862282
LeftUpLeg -12.890306 0.884215 18.355033
LeftLeg 18.738987 -0.000000 -0.000000
LeftFoot -15.288692 -14.293016 -9.402734
LeftToeBase 19.498808 -0.000000 -0.000000
RightUpLeg -70.197197 -2.637506 9.602907
RightLeg 133.888922 -0.000000 -0.000000
RightFoot 24.739678 18.629179 2.734073
RightToeBase -3.000644 -0.000000 0.000000
685
root 4.673767 38.237567 -1.430710 -14.353031 43.766958 -29.400644
Spine -3.804813 2.716899 24.993644
Head -10.350346 -8.334762 2.144838
LeftShoulder -2.380659 -7.654259 4.001012
LeftArm 9.177214 13.892387 -65.704063
LeftForeArm 15.683795 -0.000000 111.879226
LeftHand -8.522925 -0.000000 28.679483
LeftHandThumb1 -26.253704 0.000000 33.147579
RightShoulder -2.327467 -16.944858 -2.936848
RightArm 14.916390 -11.406900 58.924988
RightForeArm 189.544971 -0.000000 19.658050
RightHand 2.146135 -0.000000 3.511900
RightHandThumb1 -24.326973 -0.000000 -32.862282
LeftUpLeg -12.904506 0.907388 18.282855
LeftLeg 18.862624 -0.000000 -0.000000
LeftFoot -15.363639 -14.448808 -9.503804
LeftToeBase 19.644132 -0.000000 -0.000000
RightUpLeg -70.080808 -2.699744 9.648208
RightLeg 133.886323 -0.000000 -0.000000
RightFoot 24.645691 18.623300 2.684453
RightToeBase -2.926834 -0.000000 0.000000
